<svg width="28" height="28" viewBox="0 0 28 28" fill="none" xmlns="http://www.w3.org/2000/svg">
<g clip-path="url(#clip0_3_237)">
<path d="M9.33333 26.25V22.75H28V26.25H9.33333ZM9.33333 15.75V12.25H28V15.75H9.33333ZM9.33333 5.25V1.75H28V5.25H9.33333ZM3.11111 28C2.25556 28 1.52315 27.6573 0.913889 26.9719C0.30463 26.2865 0 25.4625 0 24.5C0 23.5375 0.30463 22.7135 0.913889 22.0281C1.52315 21.3427 2.25556 21 3.11111 21C3.96667 21 4.69907 21.3427 5.30833 22.0281C5.91759 22.7135 6.22222 23.5375 6.22222 24.5C6.22222 25.4625 5.91759 26.2865 5.30833 26.9719C4.69907 27.6573 3.96667 28 3.11111 28ZM3.11111 17.5C2.25556 17.5 1.52315 17.1573 0.913889 16.4719C0.30463 15.7865 0 14.9625 0 14C0 13.0375 0.30463 12.2135 0.913889 11.5281C1.52315 10.8427 2.25556 10.5 3.11111 10.5C3.96667 10.5 4.69907 10.8427 5.30833 11.5281C5.91759 12.2135 6.22222 13.0375 6.22222 14C6.22222 14.9625 5.91759 15.7865 5.30833 16.4719C4.69907 17.1573 3.96667 17.5 3.11111 17.5ZM3.11111 7C2.25556 7 1.52315 6.65729 0.913889 5.97187C0.30463 5.28646 0 4.4625 0 3.5C0 2.5375 0.30463 1.71354 0.913889 1.02812C1.52315 0.342708 2.25556 0 3.11111 0C3.96667 0 4.69907 0.342708 5.30833 1.02812C5.91759 1.71354 6.22222 2.5375 6.22222 3.5C6.22222 4.4625 5.91759 5.28646 5.30833 5.97187C4.69907 6.65729 3.96667 7 3.11111 7Z" fill="white"/>
</g>
<defs>
<clipPath id="clip0_3_237">
<rect width="28" height="28" fill="white"/>
</clipPath>
</defs>
</svg>
