<svg width="30" height="34" viewBox="0 0 30 34" fill="none" xmlns="http://www.w3.org/2000/svg">
<path d="M2.33333 33.4649L0 30.8621L17.0833 11.8057C16.5833 10.5043 16.5139 9.03243 16.875 7.39017C17.2361 5.74791 18.0278 4.27607 19.25 2.97466C20.7222 1.3324 22.3611 0.371832 24.1667 0.0929581C25.9722 -0.185916 27.4444 0.30986 28.5833 1.58029C29.7222 2.85071 30.1667 4.49297 29.9167 6.50707C29.6667 8.52116 28.8056 10.3493 27.3333 11.9916C26.1667 13.355 24.8472 14.2381 23.375 14.6409C21.9028 15.0437 20.5833 14.9663 19.4167 14.4085L17.3333 16.7325L30 30.8621L27.6667 33.4649L15 19.4282L2.33333 33.4649ZM7.25 17.5691L2.25 11.9916C0.75 10.3183 0 8.31975 0 5.9958C0 3.67184 0.75 1.67325 2.25 0L12.5833 11.6198L7.25 17.5691Z" fill="#5E3023"/>
</svg>
