<svg width="22" height="16" viewBox="0 0 22 16" fill="none" xmlns="http://www.w3.org/2000/svg">
<path d="M12.9394 5.9V4.2C13.4727 3.96667 14.0182 3.79167 14.5757 3.675C15.1333 3.55833 15.7192 3.5 16.3333 3.5C16.7535 3.5 17.1656 3.53333 17.5697 3.6C17.9737 3.66667 18.3697 3.75 18.7576 3.85V5.45C18.3697 5.3 17.9778 5.1875 17.5818 5.1125C17.1858 5.0375 16.7697 5 16.3333 5C15.7192 5 15.1293 5.07917 14.5636 5.2375C13.998 5.39583 13.4565 5.61667 12.9394 5.9ZM12.9394 11.4V9.7C13.4727 9.46667 14.0182 9.29167 14.5757 9.175C15.1333 9.05833 15.7192 9 16.3333 9C16.7535 9 17.1656 9.03333 17.5697 9.1C17.9737 9.16667 18.3697 9.25 18.7576 9.35V10.95C18.3697 10.8 17.9778 10.6875 17.5818 10.6125C17.1858 10.5375 16.7697 10.5 16.3333 10.5C15.7192 10.5 15.1293 10.575 14.5636 10.725C13.998 10.875 13.4565 11.1 12.9394 11.4ZM12.9394 8.65V6.95C13.4727 6.71667 14.0182 6.54167 14.5757 6.425C15.1333 6.30833 15.7192 6.25 16.3333 6.25C16.7535 6.25 17.1656 6.28333 17.5697 6.35C17.9737 6.41667 18.3697 6.5 18.7576 6.6V8.2C18.3697 8.05 17.9778 7.9375 17.5818 7.8625C17.1858 7.7875 16.7697 7.75 16.3333 7.75C15.7192 7.75 15.1293 7.82917 14.5636 7.9875C13.998 8.14583 13.4565 8.36667 12.9394 8.65ZM5.66665 12C6.42624 12 7.16564 12.0875 7.88483 12.2625C8.60402 12.4375 9.31917 12.7 10.0303 13.05V3.2C9.36766 2.8 8.66463 2.5 7.92119 2.3C7.17776 2.1 6.42624 2 5.66665 2C5.08483 2 4.50705 2.05833 3.93331 2.175C3.35958 2.29167 2.80604 2.46667 2.27271 2.7V12.6C2.83836 12.4 3.39998 12.25 3.95756 12.15C4.51513 12.05 5.08483 12 5.66665 12ZM11.9697 13.05C12.6808 12.7 13.3959 12.4375 14.1151 12.2625C14.8343 12.0875 15.5737 12 16.3333 12C16.9151 12 17.4848 12.05 18.0424 12.15C18.6 12.25 19.1616 12.4 19.7273 12.6V2.7C19.1939 2.46667 18.6404 2.29167 18.0666 2.175C17.4929 2.05833 16.9151 2 16.3333 2C15.5737 2 14.8222 2.1 14.0788 2.3C13.3353 2.5 12.6323 2.8 11.9697 3.2V13.05ZM11 16C10.2242 15.3667 9.38382 14.875 8.47877 14.525C7.57372 14.175 6.63634 14 5.66665 14C4.98786 14 4.32119 14.0917 3.66665 14.275C3.0121 14.4583 2.38584 14.7167 1.78786 15.05C1.44846 15.2333 1.12119 15.225 0.80604 15.025C0.490889 14.825 0.333313 14.5333 0.333313 14.15V2.1C0.333313 1.91667 0.377757 1.74167 0.466646 1.575C0.555535 1.40833 0.688869 1.28333 0.866646 1.2C1.61008 0.8 2.38584 0.5 3.19392 0.3C4.002 0.1 4.82624 0 5.66665 0C6.60402 0 7.52119 0.125 8.41816 0.375C9.31513 0.625 10.1757 1 11 1.5C11.8242 1 12.6848 0.625 13.5818 0.375C14.4788 0.125 15.3959 0 16.3333 0C17.1737 0 17.998 0.1 18.806 0.3C19.6141 0.5 20.3899 0.8 21.1333 1.2C21.3111 1.28333 21.4444 1.40833 21.5333 1.575C21.6222 1.74167 21.6666 1.91667 21.6666 2.1V14.15C21.6666 14.5333 21.5091 14.825 21.1939 15.025C20.8788 15.225 20.5515 15.2333 20.2121 15.05C19.6141 14.7167 18.9879 14.4583 18.3333 14.275C17.6788 14.0917 17.0121 14 16.3333 14C15.3636 14 14.4262 14.175 13.5212 14.525C12.6161 14.875 11.7757 15.3667 11 16Z" fill="white"/>
</svg>
