<svg width="24" height="24" viewBox="0 0 24 24" fill="none" xmlns="http://www.w3.org/2000/svg">
<path d="M11.45 17.75H13.55V13.55H17.75V11.45H13.55V7.25H11.45V11.45H7.25V13.55H11.45V17.75ZM12.5 23C11.0475 23 9.6825 22.7244 8.405 22.1731C7.1275 21.6219 6.01625 20.8737 5.07125 19.9287C4.12625 18.9837 3.37812 17.8725 2.82687 16.595C2.27562 15.3175 2 13.9525 2 12.5C2 11.0475 2.27562 9.6825 2.82687 8.405C3.37812 7.1275 4.12625 6.01625 5.07125 5.07125C6.01625 4.12625 7.1275 3.37812 8.405 2.82687C9.6825 2.27562 11.0475 2 12.5 2C13.9525 2 15.3175 2.27562 16.595 2.82687C17.8725 3.37812 18.9837 4.12625 19.9287 5.07125C20.8737 6.01625 21.6219 7.1275 22.1731 8.405C22.7244 9.6825 23 11.0475 23 12.5C23 13.9525 22.7244 15.3175 22.1731 16.595C21.6219 17.8725 20.8737 18.9837 19.9287 19.9287C18.9837 20.8737 17.8725 21.6219 16.595 22.1731C15.3175 22.7244 13.9525 23 12.5 23ZM12.5 20.9C14.845 20.9 16.8312 20.0863 18.4587 18.4587C20.0863 16.8312 20.9 14.845 20.9 12.5C20.9 10.155 20.0863 8.16875 18.4587 6.54125C16.8312 4.91375 14.845 4.1 12.5 4.1C10.155 4.1 8.16875 4.91375 6.54125 6.54125C4.91375 8.16875 4.1 10.155 4.1 12.5C4.1 14.845 4.91375 16.8312 6.54125 18.4587C8.16875 20.0863 10.155 20.9 12.5 20.9Z" fill="white"/>
</svg>
