<svg width="28" height="28" viewBox="0 0 28 28" fill="none" xmlns="http://www.w3.org/2000/svg">
<path d="M10.5 23.3333H12.25V17.1111C12.9792 17.1111 13.599 16.8843 14.1094 16.4306C14.6198 15.9769 14.875 15.4259 14.875 14.7778V10.1111H13.125V14.7778H12.25V10.1111H10.5V14.7778H9.625V10.1111H7.875V14.7778C7.875 15.4259 8.13021 15.9769 8.64062 16.4306C9.15104 16.8843 9.77083 17.1111 10.5 17.1111V23.3333ZM17.5 23.3333H19.25V10.1111C18.2875 10.1111 17.4635 10.4157 16.7781 11.025C16.0927 11.6343 15.75 12.3667 15.75 13.2222V17.8889H17.5V23.3333ZM0 28V9.33333L14 0L28 9.33333V28H0ZM3.5 24.8889H24.5V10.8889L14 3.88889L3.5 10.8889V24.8889Z" fill="white"/>
</svg>
